<svg t="1750155560861" class="icon" viewBox="0 0 1024 1024" version="1.1" xmlns="http://www.w3.org/2000/svg" p-id="6171" width="256" height="256"><path d="M156.672 64c17.088 0 30.912 13.76 30.912 30.784v77.056h679.808c17.088 0 30.912 13.76 30.912 30.72v615.872h30.848a30.72 30.72 0 1 1 0 61.568h-30.976v77.056a30.848 30.848 0 0 1-61.76 0V880H156.736a30.848 30.848 0 0 1-30.912-30.72V233.344h-30.912a30.848 30.848 0 1 1 0-61.568h30.912V94.72c0-17.024 13.824-30.784 30.848-30.784z m680.896 166.976H186.432v584.32h651.136V231.04z m-89.024 196.032v308.672c0 0.896-132.48 1.344-253.632 1.536H467.2l-13.568 0.064h-48.64l-15.04 0.064H298.752a27.008 27.008 0 0 1-15.36-5.12c-10.24-8.768-10.24-20.992-1.728-31.36l105.664-151.808a23.04 23.04 0 0 1 30.72-3.392L509.952 611.84l165.184-181.312 1.536-1.536 4.352-4.416c14.528-14.208 47.168-40.576 67.456 2.432zM339.456 320c28.16 0 52.864 24.384 52.864 55.68s-23.104 55.68-52.864 55.68c-29.12-0.32-52.672-25.088-52.864-55.68 0-31.36 24.768-55.68 52.864-55.68z" p-id="6172" fill="#1296db"></path></svg>